<?xml version="1.0" encoding="UTF-8" standalone="no"?>
<svg viewBox="0 0 500 530" version="1.1" xmlns="http://www.w3.org/2000/svg" xmlns:xlink="http://www.w3.org/1999/xlink" xmlns:sketch="http://www.bohemiancoding.com/sketch/ns">
    <!-- Generator: Sketch 3.3.2 (12043) - http://www.bohemiancoding.com/sketch -->
    <title>half_court</title>
    <desc>Created with Sketch.</desc>
    <defs>
        <linearGradient x1="100%" y1="0%" x2="0%" y2="100%" id="linearGradient-1">
            <stop stop-color="#626262" offset="31.1104911%"></stop>
            <stop stop-color="#5D5D5D" offset="0%"></stop>
            <stop stop-color="#474747" offset="100%"></stop>
        </linearGradient>
        <rect id="path-2" x="118" y="0" width="470" height="500"></rect>
    </defs>
    <g id="Page-1" stroke="none" stroke-width="1" fill="none" fill-rule="evenodd" sketch:type="MSPage">
        <g id="Desktop-HD" sketch:type="MSArtboardGroup" transform="translate(-470.000000, -42.000000)">
            <g id="half_court" sketch:type="MSLayerGroup" transform="translate(720.500000, 335.500000) rotate(-90.000000) translate(-720.500000, -335.500000) translate(426.000000, 85.000000)">
                <g id="Mask">
                    <use stroke="#FFFFFF" stroke-width="4" fill="url(#linearGradient-1)" fill-rule="evenodd" sketch:type="MSShapeGroup" xlink:href="#path-2"></use>
                    <use stroke="none" fill="none" xlink:href="#path-2"></use>
                </g>
                <path d="M583,29.9401198 L456,29.9401198 C456,29.9401198 293,59.8802395 293,249.500998 C293,439.121756 456,469.061876 456,469.061876 L581.980259,469.061876" id="Path-1" stroke="#DD5F55" stroke-width="4" sketch:type="MSShapeGroup"></path>
                <g id="inside-copy" transform="translate(463.000000, 249.500998) scale(-1, 1) translate(-463.000000, -249.500998) translate(338.000000, 169.660679)" stroke="#FFFFFF" stroke-width="4" sketch:type="MSShapeGroup">
                    <rect id="Rectangle-8" fill-opacity="0.900000036" fill="#D26F42" x="0" y="0" width="190" height="159.680639"></rect>
                    <path d="M0,19.9600798 L190,19.9600798 L188.994709,139.720559 L0,139.720559 L0,19.9600798 Z" id="Rectangle-10"></path>
                    <ellipse id="Oval-1" cx="190" cy="79.8403194" rx="60" ry="59.8802395"></ellipse>
                    <path d="M38,49.9001996 L38,109.780439" id="Path-3"></path>
                    <path d="M54,39.9201597 C54,39.9201597 94,39.9201597 94,79.8403194 C94,119.760479 54,119.760479 54,119.760479" id="Path-4"></path>
                    <ellipse id="Oval-2" cx="57" cy="79.8403194" rx="10" ry="9.98003992"></ellipse>
                </g>
                <g id="mid" transform="translate(58.000000, 0.998004)" stroke="#FFFFFF" sketch:type="MSShapeGroup">
                    <path d="M60,0 L60,499.001996" id="Path-7" stroke-width="4"></path>
                    <ellipse id="Oval-5" stroke-width="5" cx="60" cy="248.502994" rx="60" ry="59.8802395"></ellipse>
                </g>
            </g>
        </g>
    </g>
</svg>